<svg xmlns="http://www.w3.org/2000/svg" xmlns:xlink="http://www.w3.org/1999/xlink" width="200" zoomAndPan="magnify" viewBox="0 0 150 37.5" height="50" preserveAspectRatio="xMidYMid meet" version="1.0"><path stroke-linecap="butt" transform="matrix(0.740132, 0, 0, 0.740132, 11.199392, 11.101974)" fill="none" stroke-linejoin="miter" d="M 21.585877 6.459444 C 21.585877 6.607222 21.585877 6.813055 21.585877 7.071666 C 21.585877 7.330277 21.591155 7.599444 21.596433 7.873889 C 21.596433 8.143055 21.601711 8.375277 21.606988 8.565277 C 21.612266 8.755277 21.617544 8.850277 21.617544 8.850277 C 21.617544 8.950555 21.570044 8.998055 21.480322 8.998055 L 12.840599 8.998055 C 12.38671 8.998055 11.901155 8.913611 11.399766 8.75 C 10.898377 8.575833 10.444488 8.290833 10.043377 7.879166 C 9.658099 7.472777 9.388932 7.050555 9.235877 6.617777 C 9.088099 6.185 9.01421 5.725833 9.01421 5.245555 C 9.01421 5.245555 9.01421 5.245555 9.01421 5.240277 C 9.01421 5.235 9.01421 5.235 9.01421 5.235 L 9.01421 3.424722 C 9.01421 3.424722 9.01421 3.419444 9.01421 3.414166 C 9.01421 3.408888 9.01421 3.408888 9.01421 3.408888 C 9.01421 3.049999 9.030043 2.722777 9.056432 2.432499 C 9.088099 2.136944 9.151432 1.851944 9.241155 1.582777 C 9.320321 1.334722 9.436432 1.113055 9.589488 0.912499 C 9.747821 0.711944 9.927266 0.527222 10.138377 0.358333 C 10.497266 0.0733326 10.845599 -0.121945 11.188655 -0.216945 C 11.53171 -0.311945 11.906432 -0.375279 12.307544 -0.401667 L 21.480322 -0.401667 C 21.570044 -0.401667 21.617544 -0.359445 21.617544 -0.269723 L 21.617544 0.585277 C 21.617544 0.611666 21.612266 0.717222 21.606988 0.891388 C 21.601711 1.065555 21.601711 1.255555 21.601711 1.461388 C 21.601711 1.661944 21.601711 1.825555 21.601711 1.946944 C 21.601711 2.105277 21.601711 2.26361 21.606988 2.421944 C 21.612266 2.580277 21.617544 2.738611 21.617544 2.902222 L 21.617544 3.408888 C 21.617544 3.498611 21.570044 3.546111 21.480322 3.556666 C 21.242822 3.556666 20.931433 3.556666 20.546155 3.551388 C 20.166155 3.546111 19.759766 3.540833 19.332266 3.530277 C 18.904766 3.519722 18.493099 3.509166 18.097266 3.498611 C 17.701433 3.488055 17.368933 3.477499 17.099766 3.472222 C 16.835877 3.456388 16.672266 3.451111 16.624766 3.451111 C 16.476988 3.451111 16.32921 3.466944 16.181433 3.493333 C 16.038933 3.514444 15.906988 3.567222 15.785599 3.651666 C 15.685321 3.709722 15.600877 3.788888 15.532266 3.894444 C 15.463655 3.999999 15.431988 4.110833 15.431988 4.226944 C 15.431988 4.337777 15.463655 4.432777 15.52171 4.511944 C 15.590321 4.596388 15.66421 4.659722 15.743377 4.707222 C 15.912266 4.807499 16.102266 4.870833 16.308099 4.902499 C 16.51921 4.934166 16.719766 4.960555 16.909766 4.976388 C 17.036433 4.986944 17.268655 4.992222 17.606433 4.992222 C 17.949488 4.992222 18.334766 4.992222 18.762266 4.986944 C 19.189766 4.981666 19.606711 4.976388 20.018377 4.971111 C 20.424766 4.965833 20.767822 4.960555 21.036988 4.955277 C 21.316711 4.949999 21.459211 4.949999 21.480322 4.949999 C 21.543655 4.949999 21.585877 4.976388 21.617544 5.039722 C 21.606988 5.277222 21.596433 5.514722 21.596433 5.746944 C 21.591155 5.979166 21.585877 6.216666 21.585877 6.459444 Z M 34.743378 8.998055 L 27.840044 8.998055 C 27.792544 8.998055 27.766155 8.976944 27.766155 8.929444 C 27.766155 8.739444 27.787266 8.480833 27.834766 8.158889 C 27.876989 7.831666 27.929766 7.504444 27.982544 7.177222 C 28.035322 6.844722 28.077544 6.591388 28.093378 6.411944 C 28.103933 6.364444 28.1356 6.343333 28.1831 6.353888 C 28.204211 6.353888 28.2781 6.353888 28.410044 6.359166 C 28.536711 6.364444 28.679211 6.369722 28.837544 6.369722 C 29.001155 6.369722 29.143655 6.364444 29.2756 6.353888 C 29.407544 6.343333 29.486711 6.322222 29.5131 6.28 C 29.565878 6.227222 29.581711 6.142777 29.571155 6.026666 C 29.565878 5.905277 29.544766 5.783888 29.523655 5.6625 C 29.497266 5.535833 29.476155 5.430277 29.455044 5.351111 C 29.444489 5.271944 29.407544 5.103055 29.354766 4.839166 C 29.301989 4.575277 29.243933 4.295555 29.191155 3.999999 C 29.138378 3.704444 29.106711 3.461666 29.096155 3.271666 C 29.075044 3.055277 29.032822 2.870555 28.958933 2.722777 C 28.890322 2.569722 28.784766 2.495833 28.647544 2.495833 C 28.446989 2.485277 28.304489 2.559166 28.225322 2.706944 C 28.146155 2.854722 28.098655 2.965555 28.082822 3.034166 C 28.019489 3.403611 27.961433 3.725555 27.903378 3.999999 C 27.8506 4.274444 27.8031 4.543611 27.7556 4.807499 C 27.713378 5.071388 27.6606 5.382777 27.602544 5.741666 C 27.523378 6.269444 27.438933 6.797222 27.354489 7.330277 C 27.270044 7.863333 27.217266 8.396389 27.196155 8.929444 C 27.196155 8.976944 27.175044 8.998055 27.122266 8.998055 L 22.425044 8.998055 C 22.366988 8.998055 22.345877 8.971666 22.351155 8.908333 C 22.372266 8.839722 22.393377 8.755277 22.414488 8.655 C 22.446155 8.565277 22.498933 8.375277 22.583377 8.079722 C 22.667822 7.784166 22.762822 7.456944 22.868377 7.0875 C 22.973933 6.718055 23.079488 6.359166 23.179766 6.016111 C 23.285322 5.673055 23.369766 5.409166 23.427822 5.219166 C 23.470044 5.055555 23.5281 4.818055 23.601988 4.501388 C 23.675877 4.179444 23.755044 3.825833 23.839488 3.429999 C 23.923933 3.034166 24.008377 2.643611 24.092822 2.253055 C 24.177266 1.857222 24.256433 1.50361 24.325044 1.186944 C 24.393655 0.875555 24.456988 0.638055 24.509766 0.479722 C 24.536155 0.337222 24.567822 0.199999 24.599488 0.0680549 C 24.636433 -0.0691674 24.6681 -0.20639 24.683933 -0.343612 C 24.694489 -0.380556 24.720877 -0.401667 24.757822 -0.401667 L 32.473933 -0.401667 C 32.516155 -0.401667 32.537267 -0.380556 32.547822 -0.343612 C 32.611155 -0.132501 32.658656 0.110277 32.706156 0.389999 C 32.753656 0.669722 32.801156 0.912499 32.859211 1.118333 C 32.985878 1.519444 33.080878 1.878333 33.160044 2.194999 C 33.239211 2.516944 33.328933 2.875833 33.429211 3.271666 C 33.529489 3.672777 33.624489 4.073888 33.708933 4.469722 C 33.793378 4.870833 33.8831 5.266666 33.972822 5.667777 C 33.988656 5.746944 34.0256 5.9 34.078378 6.121666 C 34.136433 6.348611 34.199767 6.601944 34.273656 6.886944 C 34.347544 7.166666 34.426711 7.456944 34.5006 7.741944 C 34.574489 8.032222 34.6431 8.285555 34.695878 8.491389 C 34.748656 8.7025 34.790878 8.839722 34.822544 8.908333 C 34.843656 8.971666 34.817267 8.998055 34.743378 8.998055 Z M 48.117267 7.488611 C 48.117267 7.557222 48.117267 7.668055 48.122545 7.821111 C 48.127823 7.968889 48.133101 8.127222 48.138378 8.290833 C 48.143656 8.454444 48.148934 8.596944 48.154212 8.713055 C 48.159489 8.834444 48.164767 8.8925 48.164767 8.8925 C 48.164767 8.966389 48.127823 8.998055 48.059212 8.998055 L 35.661711 8.998055 C 35.5931 8.998055 35.561433 8.966389 35.561433 8.8925 L 35.561433 8.655 C 35.561433 8.649722 35.561433 8.644444 35.561433 8.644444 C 35.561433 8.623333 35.561433 8.602222 35.561433 8.581111 C 35.561433 8.581111 35.561433 8.443889 35.566711 8.164166 C 35.571989 7.884444 35.571989 7.515 35.571989 7.055833 C 35.571989 6.596666 35.571989 6.09 35.571989 5.530555 C 35.571989 4.971111 35.577267 4.411666 35.582545 3.852222 C 35.587822 3.287499 35.587822 2.764999 35.587822 2.289999 C 35.587822 1.809722 35.587822 1.413888 35.587822 1.097222 C 35.587822 0.785833 35.582545 0.60111 35.571989 0.55361 C 35.571989 0.41111 35.571989 0.26861 35.566711 0.12611 C 35.561433 -0.0163896 35.566711 -0.164167 35.571989 -0.311945 C 35.582545 -0.375279 35.624767 -0.401667 35.693378 -0.401667 L 41.762823 -0.401667 C 41.831434 -0.401667 41.868378 -0.370001 41.868378 -0.30139 C 41.868378 -0.169445 41.868378 0.0786104 41.873656 0.432222 C 41.878934 0.79111 41.884211 1.202777 41.889489 1.667222 C 41.894767 2.131666 41.900045 2.585555 41.905323 3.028888 C 41.905323 3.472222 41.9106 3.852222 41.915878 4.163611 C 41.926434 4.480277 41.931711 4.654444 41.942267 4.691388 C 41.942267 4.823333 41.936989 4.955277 41.915878 5.0925 C 41.905323 5.224444 41.921156 5.324722 41.973934 5.398611 C 42.021434 5.456666 42.090045 5.493611 42.174489 5.504166 C 42.258934 5.514722 42.369767 5.525277 42.506989 5.546388 C 42.638934 5.5675 42.818378 5.578055 43.0506 5.583333 C 43.277545 5.588611 43.504489 5.588611 43.736712 5.588611 C 43.963656 5.588611 44.1431 5.588611 44.275045 5.588611 C 44.401712 5.599166 44.639212 5.599166 44.982267 5.588611 C 45.3306 5.583333 45.7106 5.5675 46.127545 5.556944 C 46.549767 5.541111 46.940323 5.530555 47.299212 5.525277 C 47.668656 5.52 47.932545 5.52 48.101434 5.52 C 48.133101 5.52 48.148934 5.530555 48.148934 5.562222 C 48.159489 5.609722 48.164767 5.667777 48.164767 5.741666 C 48.164767 5.741666 48.159489 5.794444 48.154212 5.9 C 48.148934 6.000277 48.143656 6.121666 48.138378 6.253611 C 48.133101 6.380277 48.122545 6.480555 48.117267 6.549166 C 48.106712 6.7075 48.101434 6.865833 48.101434 7.029444 C 48.101434 7.187777 48.106712 7.340833 48.117267 7.488611 Z M 61.512268 6.459444 C 61.512268 6.607222 61.512268 6.813055 61.512268 7.071666 C 61.512268 7.330277 61.517546 7.599444 61.522823 7.873889 C 61.528101 8.143055 61.533379 8.375277 61.538657 8.565277 C 61.538657 8.755277 61.543934 8.850277 61.543934 8.850277 C 61.543934 8.950555 61.496434 8.998055 61.406712 8.998055 L 52.76699 8.998055 C 52.313101 8.998055 51.832823 8.913611 51.326156 8.75 C 50.824767 8.575833 50.370878 8.290833 49.975045 7.879166 C 49.58449 7.472777 49.315323 7.050555 49.162267 6.617777 C 49.01449 6.185 48.940601 5.725833 48.940601 5.245555 C 48.940601 5.245555 48.940601 5.245555 48.940601 5.240277 C 48.940601 5.235 48.940601 5.235 48.940601 5.235 L 48.940601 3.424722 C 48.940601 3.424722 48.940601 3.419444 48.940601 3.414166 C 48.940601 3.408888 48.940601 3.408888 48.940601 3.408888 C 48.940601 3.049999 48.956434 2.722777 48.982823 2.432499 C 49.01449 2.136944 49.077823 1.851944 49.167545 1.582777 C 49.246712 1.334722 49.362823 1.113055 49.515878 0.912499 C 49.674212 0.711944 49.853656 0.527222 50.064767 0.358333 C 50.423656 0.0733326 50.77199 -0.121945 51.115045 -0.216945 C 51.463379 -0.311945 51.832823 -0.375279 52.233934 -0.401667 L 61.406712 -0.401667 C 61.496434 -0.401667 61.543934 -0.359445 61.543934 -0.269723 L 61.543934 0.585277 C 61.543934 0.611666 61.538657 0.717222 61.538657 0.891388 C 61.533379 1.065555 61.528101 1.255555 61.528101 1.461388 C 61.528101 1.661944 61.528101 1.825555 61.528101 1.946944 C 61.528101 2.105277 61.533379 2.26361 61.538657 2.421944 C 61.538657 2.580277 61.543934 2.738611 61.543934 2.902222 L 61.543934 3.408888 C 61.543934 3.498611 61.496434 3.546111 61.406712 3.556666 C 61.169212 3.556666 60.857823 3.556666 60.472546 3.551388 C 60.092546 3.546111 59.686157 3.540833 59.258657 3.530277 C 58.831157 3.519722 58.41949 3.509166 58.023657 3.498611 C 57.633101 3.488055 57.300601 3.477499 57.026157 3.472222 C 56.762268 3.456388 56.603934 3.451111 56.551156 3.451111 C 56.403379 3.451111 56.255601 3.466944 56.107823 3.493333 C 55.965323 3.514444 55.833379 3.567222 55.717268 3.651666 C 55.61699 3.709722 55.527268 3.788888 55.458656 3.894444 C 55.390045 3.999999 55.358379 4.110833 55.358379 4.226944 C 55.358379 4.337777 55.390045 4.432777 55.453379 4.511944 C 55.516712 4.596388 55.590601 4.659722 55.669768 4.707222 C 55.838656 4.807499 56.028656 4.870833 56.23449 4.902499 C 56.445601 4.934166 56.646156 4.960555 56.836157 4.976388 C 56.962823 4.986944 57.200323 4.992222 57.538101 4.992222 C 57.875879 4.992222 58.261157 4.992222 58.688657 4.986944 C 59.116157 4.981666 59.538379 4.976388 59.944768 4.971111 C 60.356434 4.965833 60.694212 4.960555 60.968657 4.955277 C 61.243101 4.949999 61.390879 4.949999 61.406712 4.949999 C 61.470046 4.949999 61.512268 4.976388 61.543934 5.039722 C 61.533379 5.277222 61.528101 5.514722 61.522823 5.746944 C 61.517546 5.979166 61.512268 6.216666 61.512268 6.459444 Z M 72.775046 8.776389 C 72.595602 8.823889 72.368657 8.866111 72.083657 8.897777 C 71.798657 8.929444 71.508379 8.950555 71.218102 8.961111 C 70.933102 8.976944 70.690324 8.9875 70.489768 8.992777 C 70.289213 8.998055 70.178379 8.998055 70.162546 8.998055 L 66.272824 8.998055 C 65.824212 8.998055 65.349212 8.950555 64.853101 8.850277 C 64.35699 8.75 63.955879 8.618055 63.655046 8.443889 C 63.348935 8.269722 63.127268 8.090277 62.995323 7.910833 C 62.868657 7.726111 62.768379 7.5625 62.699768 7.414722 C 62.578379 7.166666 62.499212 6.881666 62.451712 6.559722 C 62.40949 6.243055 62.388379 5.9475 62.388379 5.683611 C 62.388379 5.451388 62.388379 5.224444 62.393657 4.997499 C 62.398935 4.775833 62.398935 4.585833 62.388379 4.427499 L 62.388379 -0.30139 C 62.388379 -0.370001 62.420046 -0.401667 62.488657 -0.401667 L 67.808657 -0.401667 C 67.882546 -0.401667 67.914213 -0.370001 67.914213 -0.30139 C 67.914213 -0.0322229 67.914213 0.247499 67.914213 0.527222 C 67.914213 0.801666 67.914213 1.07611 67.914213 1.345277 C 67.924768 1.482499 67.930046 1.69361 67.924768 1.968055 C 67.91949 2.237222 67.914213 2.527499 67.914213 2.838888 C 67.914213 3.150277 67.914213 3.429999 67.914213 3.683333 C 67.914213 3.936666 67.91949 4.116111 67.930046 4.216388 C 67.961713 4.422222 67.993379 4.633333 68.025046 4.833888 C 68.06199 5.039722 68.141157 5.182222 68.262546 5.261388 C 68.389213 5.351111 68.526435 5.382777 68.663657 5.351111 C 68.806157 5.324722 68.895879 5.287777 68.932824 5.245555 C 69.085879 5.097777 69.159768 4.918333 69.165046 4.707222 C 69.170324 4.496111 69.170324 4.295555 69.170324 4.100277 C 69.180879 4.015833 69.191435 3.831111 69.196713 3.535555 C 69.196713 3.239999 69.20199 2.896944 69.20199 2.495833 C 69.20199 2.094722 69.20199 1.698888 69.207268 1.308333 C 69.212546 0.917777 69.217824 0.569444 69.217824 0.279166 C 69.217824 -0.0163896 69.212546 -0.211667 69.20199 -0.30139 C 69.20199 -0.370001 69.238935 -0.401667 69.307546 -0.401667 L 74.896713 -0.401667 C 74.960046 -0.401667 74.991713 -0.370001 74.991713 -0.30139 L 74.991713 4.796944 C 74.975879 4.976388 74.970602 5.161111 74.965324 5.345833 C 74.960046 5.530555 74.954768 5.71 74.944213 5.889444 C 74.912546 6.216666 74.859768 6.559722 74.780602 6.913333 C 74.696157 7.266944 74.548379 7.573055 74.331991 7.836944 C 74.131435 8.063889 73.893935 8.259166 73.619491 8.412222 C 73.345046 8.565277 73.065324 8.686666 72.775046 8.776389 Z M 88.402547 7.488611 C 88.402547 7.557222 88.402547 7.668055 88.407824 7.821111 C 88.413102 7.968889 88.41838 8.127222 88.423658 8.290833 C 88.428936 8.454444 88.434213 8.596944 88.439491 8.713055 C 88.444769 8.834444 88.450047 8.8925 88.450047 8.8925 C 88.450047 8.966389 88.413102 8.998055 88.344491 8.998055 L 75.946991 8.998055 C 75.87838 8.998055 75.846713 8.966389 75.846713 8.8925 L 75.846713 8.655 C 75.846713 8.649722 75.846713 8.644444 75.846713 8.644444 C 75.846713 8.623333 75.846713 8.602222 75.846713 8.581111 C 75.846713 8.581111 75.846713 8.443889 75.851991 8.164166 C 75.857268 7.884444 75.862546 7.515 75.862546 7.055833 C 75.862546 6.596666 75.862546 6.09 75.862546 5.530555 C 75.862546 4.971111 75.862546 4.411666 75.867824 3.852222 C 75.873102 3.287499 75.873102 2.764999 75.873102 2.289999 C 75.873102 1.809722 75.873102 1.413888 75.873102 1.097222 C 75.873102 0.785833 75.867824 0.60111 75.862546 0.55361 C 75.862546 0.41111 75.857268 0.26861 75.851991 0.12611 C 75.846713 -0.0163896 75.851991 -0.164167 75.862546 -0.311945 C 75.867824 -0.375279 75.910046 -0.401667 75.978657 -0.401667 L 82.048102 -0.401667 C 82.116713 -0.401667 82.153658 -0.370001 82.153658 -0.30139 C 82.153658 -0.169445 82.153658 0.0786104 82.158935 0.432222 C 82.164213 0.79111 82.169491 1.202777 82.174769 1.667222 C 82.180046 2.131666 82.185324 2.585555 82.190602 3.028888 C 82.19588 3.472222 82.201158 3.852222 82.201158 4.163611 C 82.211713 4.480277 82.216991 4.654444 82.227546 4.691388 C 82.227546 4.823333 82.222269 4.955277 82.201158 5.0925 C 82.190602 5.224444 82.206435 5.324722 82.259213 5.398611 C 82.306713 5.456666 82.375324 5.493611 82.459769 5.504166 C 82.544213 5.514722 82.655046 5.525277 82.792269 5.546388 C 82.924213 5.5675 83.108935 5.578055 83.33588 5.583333 C 83.562824 5.588611 83.795047 5.588611 84.021991 5.588611 C 84.248935 5.588611 84.42838 5.588611 84.560324 5.588611 C 84.692269 5.599166 84.924491 5.599166 85.267547 5.588611 C 85.61588 5.583333 85.99588 5.5675 86.418102 5.556944 C 86.835047 5.541111 87.225602 5.530555 87.589769 5.525277 C 87.953936 5.52 88.217824 5.52 88.386713 5.52 C 88.41838 5.52 88.434213 5.530555 88.434213 5.562222 C 88.444769 5.609722 88.450047 5.667777 88.450047 5.741666 C 88.450047 5.741666 88.444769 5.794444 88.439491 5.9 C 88.434213 6.000277 88.428936 6.121666 88.423658 6.253611 C 88.41838 6.380277 88.413102 6.480555 88.402547 6.549166 C 88.391991 6.7075 88.386713 6.865833 88.386713 7.029444 C 88.386713 7.187777 88.391991 7.340833 88.402547 7.488611 Z M 101.544214 8.998055 L 94.64088 8.998055 C 94.59338 8.998055 94.566991 8.976944 94.566991 8.929444 C 94.566991 8.739444 94.588103 8.480833 94.630325 8.158889 C 94.677825 7.831666 94.730603 7.504444 94.78338 7.177222 C 94.836158 6.844722 94.873103 6.591388 94.894214 6.411944 C 94.904769 6.364444 94.936436 6.343333 94.983936 6.353888 C 95.005047 6.353888 95.078936 6.353888 95.21088 6.359166 C 95.337547 6.364444 95.480047 6.369722 95.63838 6.369722 C 95.801991 6.369722 95.944491 6.364444 96.076436 6.353888 C 96.203103 6.343333 96.287547 6.322222 96.313936 6.28 C 96.361436 6.227222 96.382547 6.142777 96.371991 6.026666 C 96.361436 5.905277 96.345603 5.783888 96.324491 5.6625 C 96.298103 5.535833 96.276991 5.430277 96.25588 5.351111 C 96.245325 5.271944 96.20838 5.103055 96.155603 4.839166 C 96.102825 4.575277 96.044769 4.295555 95.991991 3.999999 C 95.933936 3.704444 95.902269 3.461666 95.896991 3.271666 C 95.87588 3.055277 95.82838 2.870555 95.759769 2.722777 C 95.691158 2.569722 95.585603 2.495833 95.44838 2.495833 C 95.247825 2.485277 95.105325 2.559166 95.026158 2.706944 C 94.946991 2.854722 94.899491 2.965555 94.87838 3.034166 C 94.820325 3.403611 94.762269 3.725555 94.704214 3.999999 C 94.651436 4.274444 94.603936 4.543611 94.556436 4.807499 C 94.514214 5.071388 94.461436 5.382777 94.40338 5.741666 C 94.324214 6.269444 94.239769 6.797222 94.155325 7.330277 C 94.07088 7.863333 94.018103 8.396389 93.996991 8.929444 C 93.996991 8.976944 93.970602 8.998055 93.923102 8.998055 L 89.22588 8.998055 C 89.167825 8.998055 89.141436 8.971666 89.151991 8.908333 C 89.173102 8.839722 89.194213 8.755277 89.210047 8.655 C 89.241713 8.565277 89.299769 8.375277 89.384213 8.079722 C 89.468658 7.784166 89.563658 7.456944 89.669213 7.0875 C 89.774769 6.718055 89.875047 6.359166 89.980602 6.016111 C 90.086158 5.673055 90.170602 5.409166 90.228658 5.219166 C 90.27088 5.055555 90.328936 4.818055 90.402825 4.501388 C 90.476713 4.179444 90.55588 3.825833 90.640325 3.429999 C 90.724769 3.034166 90.809213 2.643611 90.893658 2.253055 C 90.978102 1.857222 91.057269 1.50361 91.12588 1.186944 C 91.194491 0.875555 91.257825 0.638055 91.305325 0.479722 C 91.336991 0.337222 91.368658 0.199999 91.400325 0.0680549 C 91.437269 -0.0691674 91.468936 -0.20639 91.484769 -0.343612 C 91.495325 -0.380556 91.521714 -0.401667 91.558658 -0.401667 L 99.274769 -0.401667 C 99.311714 -0.401667 99.338103 -0.380556 99.348658 -0.343612 C 99.406714 -0.132501 99.459492 0.110277 99.506992 0.389999 C 99.549214 0.669722 99.601992 0.912499 99.660047 1.118333 C 99.781436 1.519444 99.881714 1.878333 99.960881 2.194999 C 100.040047 2.516944 100.129769 2.875833 100.230047 3.271666 C 100.330325 3.672777 100.425325 4.073888 100.509769 4.469722 C 100.594214 4.870833 100.683936 5.266666 100.773658 5.667777 C 100.789492 5.746944 100.826436 5.9 100.879214 6.121666 C 100.937269 6.348611 101.000603 6.601944 101.074492 6.886944 C 101.148381 7.166666 101.227547 7.456944 101.301436 7.741944 C 101.375325 8.032222 101.438658 8.285555 101.496714 8.491389 C 101.549492 8.7025 101.591714 8.839722 101.623381 8.908333 C 101.639214 8.971666 101.618103 8.998055 101.544214 8.998055 Z M 114.912826 4.949999 C 114.912826 5.039722 114.90227 5.219166 114.881159 5.493611 C 114.85477 5.768055 114.80727 6.047777 114.738659 6.338055 C 114.66477 6.586111 114.580326 6.834166 114.47477 7.082222 C 114.369214 7.325 114.18977 7.578333 113.931159 7.852777 C 113.661992 8.116666 113.250326 8.375277 112.701437 8.628611 C 112.157825 8.876666 111.440048 8.998055 110.548103 8.998055 L 102.536436 8.998055 C 102.436158 8.998055 102.393936 8.950555 102.404492 8.850277 C 102.420325 8.771111 102.436158 8.586389 102.441436 8.301389 C 102.446714 8.011111 102.446714 7.678611 102.446714 7.303888 C 102.446714 6.929166 102.446714 6.570277 102.446714 6.227222 C 102.446714 5.884166 102.441436 5.609722 102.430881 5.414444 C 102.420325 4.976388 102.40977 4.538333 102.388658 4.100277 C 102.367547 3.656944 102.356992 3.218888 102.346436 2.780833 L 102.346436 0.210555 C 102.356992 0.0522215 102.36227 -0.116667 102.372825 -0.285556 C 102.372825 -0.364723 102.415047 -0.401667 102.494214 -0.401667 L 110.775048 -0.401667 C 110.775048 -0.401667 110.780325 -0.401667 110.785603 -0.401667 C 110.785603 -0.401667 110.790881 -0.401667 110.790881 -0.401667 C 111.001992 -0.375279 111.255325 -0.333056 111.550881 -0.280278 C 111.851714 -0.232778 112.168381 -0.148334 112.500881 -0.0216674 C 112.833381 0.0997215 113.155326 0.279166 113.466714 0.50611 C 113.783381 0.738333 114.036714 1.002222 114.216159 1.303055 C 114.395603 1.59861 114.527548 1.899444 114.61727 2.194999 C 114.706992 2.495833 114.770326 2.749166 114.812548 2.960277 C 114.844214 3.129166 114.865326 3.303333 114.886437 3.477499 C 114.907548 3.651666 114.912826 3.820555 114.912826 3.994722 C 114.912826 4.089722 114.912826 4.237499 114.912826 4.427499 C 114.912826 4.612222 114.912826 4.786388 114.912826 4.949999 Z M 106.948659 4.796944 C 107.006714 4.791666 107.15977 4.786388 107.39727 4.791666 C 107.63477 4.796944 107.914492 4.796944 108.241714 4.791666 C 108.563659 4.786388 108.890881 4.775833 109.223381 4.754722 C 109.550603 4.733611 109.835603 4.696666 110.073103 4.633333 C 110.241992 4.606944 110.347548 4.543611 110.384492 4.448611 C 110.426714 4.353611 110.43727 4.258611 110.421437 4.168888 C 110.405603 4.079166 110.395048 4.031666 110.384492 4.021111 C 110.29477 3.899722 110.183937 3.831111 110.05727 3.804722 C 109.930603 3.778333 109.793381 3.757222 109.656159 3.736111 C 109.592825 3.725555 109.445048 3.720277 109.20227 3.720277 C 108.96477 3.720277 108.695603 3.720277 108.39477 3.720277 C 108.099214 3.720277 107.819492 3.720277 107.555603 3.720277 C 107.291714 3.720277 107.101714 3.725555 106.990881 3.736111 L 106.975047 3.736111 C 106.906436 3.725555 106.853659 3.730833 106.811436 3.751944 C 106.774492 3.773055 106.753381 3.831111 106.753381 3.931388 L 106.753381 4.559444 C 106.753381 4.628055 106.769214 4.691388 106.806159 4.738888 C 106.843103 4.791666 106.890603 4.807499 106.948659 4.796944 Z M 127.194215 0.432222 C 127.236437 0.463888 127.310326 0.543055 127.426437 0.680277 C 127.542548 0.817499 127.669215 0.991666 127.811715 1.202777 C 127.959493 1.419166 128.080882 1.667222 128.181159 1.946944 C 128.281437 2.221388 128.328937 2.527499 128.328937 2.854722 C 128.328937 3.414166 128.339493 3.947222 128.355326 4.448611 C 128.365882 4.949999 128.360604 5.293055 128.328937 5.4725 C 128.281437 5.789166 128.212826 6.105833 128.128382 6.417222 C 128.043937 6.733888 127.911993 7.029444 127.732548 7.309166 C 127.579493 7.541388 127.400048 7.747222 127.183659 7.937222 C 126.972548 8.127222 126.740326 8.285555 126.492271 8.4175 C 126.191437 8.575833 125.843104 8.713055 125.436715 8.829166 C 125.035604 8.945277 124.576437 8.992777 124.06977 8.9875 C 124.06977 8.9875 123.953659 8.9875 123.716159 8.9875 C 123.483937 8.9875 123.183104 8.9875 122.818937 8.9875 C 122.460048 8.9875 122.069493 8.9875 121.663104 8.9875 C 121.256715 8.9875 120.866159 8.9875 120.501992 8.9875 C 120.137826 8.9875 119.84227 8.982222 119.60477 8.976944 C 119.372548 8.971666 119.245881 8.971666 119.22477 8.971666 C 118.913381 8.961111 118.591437 8.897777 118.253659 8.786944 C 117.915881 8.670833 117.599215 8.538889 117.303659 8.380555 C 117.008103 8.2275 116.775881 8.079722 116.606992 7.937222 C 116.459215 7.810555 116.316715 7.625833 116.174215 7.393611 C 116.036992 7.156111 115.920881 6.892222 115.831159 6.601944 C 115.741437 6.306388 115.693937 6.010833 115.693937 5.71 L 115.693937 3.171388 C 115.693937 2.701666 115.762548 2.268888 115.905048 1.867777 C 116.04227 1.466666 116.195326 1.160555 116.353659 0.938888 C 116.633381 0.532499 116.986992 0.22111 117.414492 0.00472151 C 117.84727 -0.20639 118.295881 -0.338334 118.760326 -0.385834 C 118.770881 -0.385834 118.89227 -0.385834 119.124492 -0.385834 C 119.361992 -0.385834 119.673381 -0.385834 120.053381 -0.385834 C 120.438659 -0.385834 120.860881 -0.385834 121.325326 -0.385834 C 121.78977 -0.385834 122.254215 -0.385834 122.723937 -0.385834 C 123.193659 -0.385834 123.621159 -0.385834 124.016993 -0.385834 C 124.412826 -0.385834 124.73477 -0.385834 124.982826 -0.385834 C 125.389215 -0.385834 125.748104 -0.327778 126.059493 -0.216945 C 126.365604 -0.100834 126.618937 0.0258326 126.814215 0.157777 C 127.009493 0.294999 127.136159 0.384722 127.194215 0.432222 Z M 123.505048 4.707222 C 123.731993 4.686111 123.87977 4.633333 123.943104 4.538333 C 124.006437 4.443333 124.038104 4.306111 124.038104 4.126666 C 124.038104 3.984166 123.969493 3.857499 123.83227 3.746666 C 123.700326 3.630555 123.568382 3.572499 123.441715 3.572499 C 123.230604 3.583055 122.971993 3.588333 122.671159 3.588333 C 122.365048 3.588333 122.048381 3.588333 121.721159 3.588333 C 121.393937 3.588333 121.098381 3.588333 120.829215 3.588333 C 120.570604 3.588333 120.370048 3.598888 120.243381 3.614722 C 120.053381 3.635833 119.916159 3.709722 119.821159 3.825833 C 119.731437 3.947222 119.689215 4.079166 119.689215 4.226944 C 119.689215 4.369444 119.731437 4.490833 119.821159 4.591111 C 119.916159 4.691388 120.042826 4.733611 120.211715 4.728333 C 120.311992 4.712499 120.50727 4.707222 120.808104 4.707222 C 121.108937 4.707222 121.441437 4.712499 121.810881 4.717777 C 122.180326 4.723055 122.523381 4.728333 122.83477 4.728333 C 123.146159 4.728333 123.373104 4.717777 123.505048 4.707222 Z M 140.546993 6.148055 C 140.678938 6.322222 140.805604 6.549166 140.937549 6.823611 C 141.064216 7.098055 141.185604 7.377777 141.29116 7.662777 C 141.401993 7.947777 141.496993 8.195833 141.570882 8.406944 C 141.644771 8.623333 141.692271 8.765833 141.713382 8.834444 C 141.723938 8.876666 141.713382 8.913611 141.681716 8.950555 C 141.655327 8.982222 141.618382 8.998055 141.57616 8.998055 L 136.419771 8.998055 C 136.361715 8.998055 136.324771 8.971666 136.298382 8.908333 C 136.271993 8.839722 136.20866 8.7025 136.11366 8.501944 C 136.01866 8.296111 135.907826 8.069166 135.78116 7.826389 C 135.649215 7.583611 135.522549 7.361944 135.40116 7.166666 C 135.285049 6.971388 135.184771 6.844722 135.105604 6.786666 C 135.047549 6.739166 134.963104 6.723333 134.852271 6.749722 C 134.741438 6.776111 134.68866 6.828888 134.68866 6.908055 C 134.656993 7.219444 134.64116 7.541388 134.630604 7.873889 C 134.620049 8.206389 134.625326 8.533611 134.64116 8.850277 C 134.651715 8.950555 134.609493 8.998055 134.509215 8.998055 L 129.32116 8.998055 C 129.231437 8.998055 129.189215 8.955833 129.189215 8.866111 C 129.189215 8.866111 129.189215 8.765833 129.189215 8.565277 C 129.189215 8.364722 129.189215 8.106111 129.189215 7.778889 C 129.189215 7.456944 129.189215 7.113888 129.194493 6.749722 C 129.199771 6.385555 129.199771 6.037222 129.199771 5.704722 C 129.199771 5.372222 129.199771 5.087222 129.194493 4.860277 C 129.189215 4.628055 129.189215 4.501388 129.189215 4.469722 L 129.189215 2.601388 C 129.205048 2.12111 129.220882 1.64611 129.231437 1.165833 C 129.241993 0.685555 129.236715 0.210555 129.215604 -0.269723 C 129.215604 -0.30139 129.220882 -0.327778 129.236715 -0.359445 C 129.252548 -0.385834 129.27366 -0.401667 129.305326 -0.401667 L 138.931993 -0.401667 C 139.380604 -0.401667 139.734216 -0.34889 139.987549 -0.243334 C 140.240882 -0.143056 140.399216 -0.0744452 140.457271 -0.0427785 C 140.705327 0.104999 140.900604 0.273888 141.043104 0.469166 C 141.190882 0.664444 141.296438 0.806944 141.354493 0.896666 C 141.544493 1.186944 141.655327 1.514166 141.681716 1.888888 C 141.713382 2.253055 141.729216 2.611944 141.729216 2.960277 C 141.729216 3.039444 141.71866 3.176666 141.697549 3.366666 C 141.681716 3.556666 141.644771 3.762499 141.602549 3.984166 C 141.555049 4.211111 141.496993 4.416944 141.412549 4.606944 C 141.264771 4.923611 141.085327 5.171666 140.879493 5.351111 C 140.668382 5.530555 140.562827 5.625555 140.562827 5.636111 C 140.552271 5.636111 140.541716 5.636111 140.536438 5.636111 C 140.43616 5.704722 140.393938 5.783888 140.415049 5.868333 C 140.430882 5.952777 140.478382 6.047777 140.546993 6.148055 Z M 136.525326 3.857499 C 136.673104 3.857499 136.810327 3.815277 136.926438 3.736111 C 137.047827 3.656944 137.11116 3.524999 137.11116 3.350833 C 137.11116 3.160833 137.042549 3.034166 136.905327 2.976111 C 136.773382 2.918055 136.662549 2.875833 136.572826 2.854722 C 136.520049 2.844166 136.393382 2.838888 136.192826 2.833611 C 135.986993 2.828333 135.760049 2.823055 135.506715 2.823055 C 135.25866 2.823055 135.031715 2.828333 134.820604 2.833611 C 134.614771 2.838888 134.477549 2.838888 134.419493 2.838888 C 134.350882 2.838888 134.298104 2.891666 134.266438 2.997222 C 134.240049 3.102777 134.224215 3.224166 134.229493 3.366666 C 134.234771 3.503888 134.250604 3.625277 134.282271 3.730833 C 134.313938 3.836388 134.361438 3.889166 134.419493 3.899722 C 134.45116 3.899722 134.551438 3.899722 134.725604 3.899722 C 134.899771 3.899722 135.105604 3.899722 135.343104 3.894444 C 135.585882 3.889166 135.812826 3.883888 136.034493 3.878611 C 136.250882 3.873333 136.419771 3.868055 136.525326 3.857499 Z M 154.796994 8.998055 L 147.89366 8.998055 C 147.840883 8.998055 147.819771 8.976944 147.819771 8.929444 C 147.819771 8.739444 147.840883 8.480833 147.883105 8.158889 C 147.930605 7.831666 147.978105 7.504444 148.03616 7.177222 C 148.088938 6.844722 148.125883 6.591388 148.146994 6.411944 C 148.157549 6.364444 148.183938 6.343333 148.236716 6.353888 C 148.257827 6.353888 148.331716 6.353888 148.458383 6.359166 C 148.590327 6.364444 148.732827 6.369722 148.89116 6.369722 C 149.049494 6.369722 149.197271 6.364444 149.323938 6.353888 C 149.455883 6.343333 149.535049 6.322222 149.566716 6.28 C 149.614216 6.227222 149.635327 6.142777 149.624771 6.026666 C 149.614216 5.905277 149.598383 5.783888 149.571994 5.6625 C 149.550883 5.535833 149.529771 5.430277 149.50866 5.351111 C 149.498105 5.271944 149.46116 5.103055 149.408383 4.839166 C 149.350327 4.575277 149.297549 4.295555 149.239494 3.999999 C 149.186716 3.704444 149.155049 3.461666 149.144494 3.271666 C 149.12866 3.055277 149.08116 2.870555 149.012549 2.722777 C 148.943938 2.569722 148.838383 2.495833 148.695883 2.495833 C 148.500605 2.485277 148.358105 2.559166 148.278938 2.706944 C 148.199771 2.854722 148.152271 2.965555 148.13116 3.034166 C 148.073105 3.403611 148.015049 3.725555 147.956994 3.999999 C 147.904216 4.274444 147.851438 4.543611 147.809216 4.807499 C 147.761716 5.071388 147.714216 5.382777 147.65616 5.741666 C 147.571716 6.269444 147.492549 6.797222 147.408105 7.330277 C 147.318382 7.863333 147.270882 8.396389 147.249771 8.929444 C 147.249771 8.976944 147.223382 8.998055 147.175882 8.998055 L 142.47866 8.998055 C 142.420605 8.998055 142.394216 8.971666 142.404771 8.908333 C 142.425882 8.839722 142.446993 8.755277 142.462827 8.655 C 142.494493 8.565277 142.552549 8.375277 142.636993 8.079722 C 142.721438 7.784166 142.816438 7.456944 142.921993 7.0875 C 143.022271 6.718055 143.127827 6.359166 143.233382 6.016111 C 143.338938 5.673055 143.423382 5.409166 143.481438 5.219166 C 143.52366 5.055555 143.576438 4.818055 143.655605 4.501388 C 143.729493 4.179444 143.80866 3.825833 143.893105 3.429999 C 143.977549 3.034166 144.061993 2.643611 144.146438 2.253055 C 144.230882 1.857222 144.310049 1.50361 144.37866 1.186944 C 144.447271 0.875555 144.505327 0.638055 144.558105 0.479722 C 144.589771 0.337222 144.621438 0.199999 144.653105 0.0680549 C 144.690049 -0.0691674 144.716438 -0.20639 144.737549 -0.343612 C 144.748105 -0.380556 144.774494 -0.401667 144.811438 -0.401667 L 152.527549 -0.401667 C 152.564494 -0.401667 152.590883 -0.380556 152.601438 -0.343612 C 152.659494 -0.132501 152.712272 0.110277 152.754494 0.389999 C 152.801994 0.669722 152.854772 0.912499 152.912827 1.118333 C 153.034216 1.519444 153.134494 1.878333 153.213661 2.194999 C 153.292827 2.516944 153.382549 2.875833 153.482827 3.271666 C 153.583105 3.672777 153.672827 4.073888 153.762549 4.469722 C 153.846994 4.870833 153.931438 5.266666 154.021161 5.667777 C 154.042272 5.746944 154.079216 5.9 154.131994 6.121666 C 154.190049 6.348611 154.253383 6.601944 154.327272 6.886944 C 154.401161 7.166666 154.475049 7.456944 154.554216 7.741944 C 154.628105 8.032222 154.691438 8.285555 154.744216 8.491389 C 154.802272 8.7025 154.844494 8.839722 154.876161 8.908333 C 154.891994 8.971666 154.865605 8.998055 154.796994 8.998055 Z M 154.796994 8.998055 " stroke="#ffde59" stroke-width="0.822734" stroke-opacity="1" stroke-miterlimit="4"/><path stroke-linecap="butt" transform="matrix(0.740132, 0, 0, 0.740132, 11.199392, 11.101974)" fill="none" stroke-linejoin="miter" d="M 36.928378 16.460833 C 36.928378 16.608611 36.928378 16.814444 36.928378 17.073056 C 36.928378 17.331667 36.933656 17.595556 36.938933 17.87 C 36.944211 18.144444 36.949489 18.376667 36.954767 18.566667 C 36.954767 18.756667 36.960045 18.851667 36.960045 18.851667 C 36.960045 18.951945 36.912545 18.999445 36.822822 18.999445 L 28.1831 18.999445 C 27.729211 18.999445 27.248933 18.915 26.742266 18.746111 C 26.240877 18.577222 25.786989 18.286944 25.391155 17.880556 C 25.0006 17.468889 24.731433 17.051944 24.578377 16.619167 C 24.4306 16.181111 24.356711 15.727222 24.356711 15.246944 C 24.356711 15.246944 24.356711 15.246944 24.356711 15.241667 C 24.356711 15.236389 24.356711 15.231111 24.356711 15.231111 L 24.356711 13.420833 C 24.356711 13.420833 24.356711 13.420833 24.356711 13.415555 C 24.356711 13.410278 24.356711 13.410278 24.356711 13.410278 C 24.356711 13.051389 24.372544 12.724166 24.398933 12.428611 C 24.4306 12.138333 24.493933 11.853333 24.583655 11.584166 C 24.662822 11.336111 24.778933 11.109166 24.931989 10.913889 C 25.090322 10.713333 25.269766 10.528611 25.480877 10.359722 C 25.839766 10.069444 26.1881 9.879444 26.531155 9.784444 C 26.879489 9.689444 27.248933 9.626111 27.650044 9.599722 L 36.822822 9.599722 C 36.912545 9.599722 36.960045 9.641944 36.960045 9.731666 L 36.960045 10.581389 C 36.960045 10.613055 36.954767 10.713333 36.954767 10.8875 C 36.949489 11.066944 36.944211 11.256944 36.944211 11.4575 C 36.944211 11.663333 36.944211 11.826944 36.944211 11.943055 C 36.944211 12.101389 36.949489 12.259722 36.954767 12.423333 C 36.954767 12.581666 36.960045 12.74 36.960045 12.903611 L 36.960045 13.410278 C 36.960045 13.5 36.912545 13.5475 36.822822 13.558055 C 36.585322 13.558055 36.273933 13.558055 35.888656 13.552778 C 35.508656 13.5475 35.102267 13.536944 34.674767 13.526389 C 34.247267 13.521111 33.8356 13.510555 33.439767 13.5 C 33.049211 13.489444 32.716711 13.478889 32.442267 13.468333 C 32.178378 13.457778 32.020044 13.4525 31.967267 13.4525 C 31.819489 13.4525 31.671711 13.463055 31.523933 13.494722 C 31.381433 13.515833 31.249489 13.568611 31.133378 13.647778 C 31.0331 13.705833 30.943378 13.790278 30.874767 13.895833 C 30.806155 13.996111 30.774489 14.112222 30.774489 14.228333 C 30.774489 14.339167 30.806155 14.434167 30.869489 14.513333 C 30.932822 14.5925 31.006711 14.661111 31.085878 14.708611 C 31.254767 14.808889 31.444767 14.872222 31.6506 14.903889 C 31.861711 14.935555 32.062267 14.956667 32.252267 14.977778 C 32.378933 14.988333 32.616433 14.993611 32.954211 14.993611 C 33.291989 14.993611 33.677267 14.988333 34.104767 14.983055 C 34.532267 14.977778 34.954489 14.977778 35.360878 14.9725 C 35.772545 14.967222 36.110322 14.961944 36.384767 14.956667 C 36.659211 14.951389 36.806989 14.946111 36.822822 14.946111 C 36.886156 14.946111 36.928378 14.977778 36.960045 15.041111 C 36.949489 15.278611 36.944211 15.516111 36.938933 15.748333 C 36.933656 15.980556 36.928378 16.218056 36.928378 16.460833 Z M 37.862545 9.599722 L 44.169489 9.599722 C 44.290878 9.599722 44.348934 9.657777 44.338378 9.779166 C 44.2856 10.502222 44.269767 11.246389 44.296156 12.001111 C 44.322545 12.761111 44.343656 13.510555 44.348934 14.26 C 44.348934 14.682222 44.343656 15.093889 44.3331 15.505555 C 44.322545 15.911944 44.322545 16.323611 44.338378 16.745833 C 44.348934 17.094167 44.359489 17.437222 44.3806 17.780278 C 44.401712 18.123333 44.422823 18.471667 44.454489 18.82 C 44.465045 18.941389 44.406989 18.999445 44.290878 18.999445 L 37.878378 18.999445 C 37.836156 18.999445 37.820322 18.973056 37.830878 18.925556 C 37.851989 18.793611 37.867822 18.556111 37.878378 18.207778 C 37.883656 17.859444 37.888933 17.468889 37.888933 17.036111 C 37.888933 16.603333 37.888933 16.191667 37.883656 15.811667 C 37.878378 15.426389 37.8731 15.136111 37.862545 14.935555 C 37.862545 14.698055 37.857267 14.381389 37.851989 13.990833 C 37.851989 13.605555 37.846711 13.183333 37.841433 12.734722 C 37.836156 12.286111 37.830878 11.848055 37.8256 11.425833 C 37.820322 11.003611 37.815045 10.634166 37.809767 10.312222 C 37.804489 9.995555 37.804489 9.773889 37.804489 9.657777 C 37.815045 9.647222 37.830878 9.626111 37.862545 9.599722 Z M 57.75449 16.518889 C 57.75449 16.5875 57.75449 16.745833 57.759768 16.988611 C 57.765045 17.231389 57.770323 17.500556 57.775601 17.796111 C 57.780879 18.091667 57.786157 18.345 57.796712 18.556111 C 57.807268 18.7725 57.812545 18.878056 57.812545 18.878056 C 57.812545 18.957222 57.770323 18.999445 57.675323 18.999445 L 45.346434 18.999445 C 45.261989 18.999445 45.225045 18.957222 45.225045 18.8675 C 45.256712 18.1075 45.277823 17.3475 45.288378 16.582222 C 45.293656 15.811667 45.298934 15.041111 45.298934 14.275833 C 45.309489 13.542222 45.335878 12.798055 45.383378 12.048611 C 45.4256 11.299166 45.399212 10.560278 45.298934 9.821389 C 45.293656 9.810833 45.288378 9.800277 45.288378 9.784444 C 45.288378 9.768611 45.288378 9.758055 45.288378 9.7475 C 45.267267 9.647222 45.309489 9.599722 45.404489 9.599722 L 57.633101 9.599722 C 57.696434 9.599722 57.733379 9.626111 57.75449 9.684166 L 57.75449 9.7 C 57.75449 9.7 57.75449 9.789722 57.75449 9.969166 C 57.75449 10.148611 57.75449 10.370278 57.749212 10.628889 C 57.743934 10.8875 57.738657 11.151389 57.733379 11.415278 C 57.728101 11.679166 57.722823 11.895555 57.722823 12.075 C 57.722823 12.243889 57.722823 12.333611 57.722823 12.333611 C 57.722823 12.412778 57.685879 12.449722 57.606712 12.449722 C 57.606712 12.449722 57.506434 12.449722 57.311157 12.449722 C 57.115879 12.449722 56.878379 12.455 56.588101 12.460278 C 56.297823 12.465555 55.99699 12.465555 55.685601 12.465555 C 55.368934 12.465555 55.083934 12.465555 54.825323 12.460278 C 54.566712 12.455 54.38199 12.449722 54.271156 12.449722 C 53.891156 12.433889 53.511156 12.423333 53.125879 12.423333 C 52.740601 12.423333 52.360601 12.449722 51.985879 12.497222 C 51.832823 12.513055 51.679767 12.560555 51.516156 12.629166 C 51.357823 12.703055 51.273378 12.824444 51.262823 13.009167 C 51.257545 13.114722 51.289212 13.209722 51.363101 13.294167 C 51.43699 13.368055 51.526712 13.420833 51.621712 13.4525 C 51.732545 13.494722 51.853934 13.515833 51.975323 13.515833 C 52.10199 13.515833 52.223379 13.515833 52.33949 13.515833 C 52.460879 13.515833 52.666712 13.510555 52.962267 13.505278 C 53.257823 13.5 53.595601 13.5 53.975601 13.5 C 54.360879 13.5 54.756712 13.5 55.168379 13.5 C 55.574768 13.5 55.954768 13.494722 56.308379 13.494722 C 56.66199 13.489444 56.957545 13.484167 57.189768 13.484167 C 57.427268 13.484167 57.56449 13.484167 57.606712 13.484167 C 57.685879 13.484167 57.722823 13.526389 57.722823 13.600278 C 57.722823 13.600278 57.722823 13.684722 57.722823 13.848333 C 57.722823 14.017222 57.728101 14.207222 57.733379 14.428889 C 57.738657 14.645278 57.743934 14.851111 57.749212 15.041111 C 57.75449 15.225833 57.75449 15.341944 57.75449 15.384167 C 57.75449 15.463333 57.70699 15.505555 57.617268 15.505555 C 57.268934 15.505555 56.920601 15.505555 56.572268 15.510833 C 56.223934 15.516111 55.875601 15.510833 55.527268 15.505555 C 55.358379 15.505555 55.120879 15.500278 54.825323 15.495 C 54.52449 15.489722 54.213101 15.479167 53.891156 15.468611 C 53.563934 15.463333 53.273656 15.452778 53.015045 15.4475 C 52.756434 15.442222 52.587545 15.442222 52.508379 15.442222 C 52.397545 15.452778 52.270879 15.458055 52.123101 15.458055 C 51.980601 15.458055 51.843379 15.479167 51.711434 15.516111 C 51.584767 15.558333 51.489767 15.6375 51.426434 15.753611 C 51.331434 15.943611 51.34199 16.101944 51.473934 16.228611 C 51.605879 16.35 51.748379 16.434444 51.906712 16.476667 C 52.107267 16.524167 52.307823 16.54 52.508379 16.524167 C 52.703656 16.508333 52.904212 16.503056 53.104767 16.503056 C 53.252545 16.503056 53.474212 16.503056 53.775045 16.497778 C 54.075879 16.4925 54.413656 16.481944 54.783101 16.476667 C 55.157823 16.466111 55.532545 16.455556 55.907268 16.445 C 56.28199 16.434444 56.619768 16.423889 56.920601 16.418611 C 57.226712 16.413333 57.458934 16.408056 57.617268 16.3975 C 57.70699 16.3975 57.75449 16.439722 57.75449 16.518889 Z M 71.123102 14.724444 C 71.123102 14.961944 71.123102 15.2575 71.117824 15.600555 C 71.112546 15.943611 71.107268 16.3025 71.107268 16.677222 C 71.107268 17.051944 71.107268 17.400278 71.10199 17.7275 C 71.096713 18.06 71.096713 18.334445 71.096713 18.556111 C 71.096713 18.783056 71.096713 18.915 71.096713 18.957222 C 71.096713 18.983611 71.080879 18.999445 71.059768 18.999445 L 65.275324 18.999445 C 65.254212 18.999445 65.248935 18.988889 65.248935 18.973056 C 65.196157 18.851667 65.148657 18.730278 65.106435 18.614167 C 65.058935 18.492778 65.006157 18.371389 64.948101 18.25 C 64.837268 18.001944 64.747546 17.711667 64.668379 17.379167 C 64.599768 17.041389 64.488935 16.7775 64.351712 16.576944 C 64.283101 16.476667 64.188101 16.455556 64.066712 16.508333 C 63.945323 16.566389 63.88199 16.656111 63.871435 16.772222 C 63.850323 17.094167 63.850323 17.458333 63.871435 17.864722 C 63.892546 18.271111 63.908379 18.635278 63.918935 18.957222 C 63.918935 18.983611 63.903101 18.999445 63.871435 18.999445 L 58.65699 18.999445 C 58.625323 18.999445 58.60949 18.983611 58.60949 18.957222 C 58.60949 18.139167 58.620045 17.321111 58.646434 16.497778 C 58.672823 15.674444 58.683379 14.851111 58.683379 14.038333 C 58.683379 13.325833 58.693934 12.602778 58.70449 11.858611 C 58.720323 11.119722 58.699212 10.428333 58.641157 9.789722 L 58.641157 9.641944 C 58.641157 9.610277 58.651712 9.599722 58.667545 9.599722 L 64.304212 9.599722 C 64.325323 9.599722 64.335879 9.605 64.335879 9.626111 C 64.436157 9.858333 64.525879 10.132777 64.605046 10.454722 C 64.684212 10.776666 64.768657 11.103889 64.858379 11.425833 C 64.948101 11.747778 65.048379 12.022222 65.159212 12.243889 C 65.190879 12.291389 65.233101 12.328333 65.296435 12.354722 C 65.365046 12.381111 65.428379 12.381111 65.486435 12.36 C 65.607824 12.333611 65.671157 12.243889 65.681712 12.096111 C 65.708101 11.885 65.729212 11.631666 65.73449 11.330833 C 65.739768 11.03 65.739768 10.729166 65.73449 10.417778 C 65.729212 10.111666 65.723935 9.853055 65.723935 9.641944 C 65.723935 9.610277 65.739768 9.599722 65.771435 9.599722 L 71.107268 9.599722 C 71.138935 9.599722 71.154768 9.610277 71.154768 9.641944 C 71.154768 9.6525 71.154768 9.663055 71.154768 9.668333 C 71.154768 10.518055 71.14949 11.3625 71.138935 12.201666 C 71.128379 13.046111 71.123102 13.885278 71.123102 14.724444 Z M 84.52338 9.626111 C 84.52338 9.826666 84.518102 10.106389 84.512824 10.46 C 84.507547 10.813611 84.507547 11.183055 84.507547 11.563055 C 84.507547 11.948333 84.507547 12.291389 84.507547 12.592222 C 84.507547 12.898333 84.512824 13.098889 84.52338 13.199167 C 84.52338 13.288889 84.47588 13.341667 84.386158 13.352222 C 84.248935 13.368055 84.043102 13.383889 83.773935 13.383889 C 83.504769 13.389167 83.219769 13.389167 82.913658 13.383889 C 82.612824 13.383889 82.33838 13.378611 82.090324 13.378611 C 81.847546 13.378611 81.678658 13.383889 81.588935 13.394444 C 81.53088 13.394444 81.472824 13.399722 81.409491 13.415555 C 81.351435 13.431389 81.298658 13.4525 81.24588 13.484167 C 81.145602 13.563333 81.076991 13.663611 81.040046 13.779722 C 81.018935 13.8325 80.997824 13.985555 80.987269 14.238889 C 80.971435 14.492222 80.96088 14.803611 80.955602 15.173055 C 80.950324 15.5425 80.950324 15.933056 80.950324 16.339444 C 80.950324 16.745833 80.950324 17.136389 80.950324 17.500556 C 80.950324 17.864722 80.950324 18.170833 80.950324 18.418889 C 80.950324 18.666945 80.950324 18.804167 80.950324 18.835833 C 80.950324 18.946667 80.897546 18.999445 80.797269 18.999445 L 75.862546 18.999445 C 75.762268 18.999445 75.714768 18.951945 75.714768 18.851667 C 75.704213 18.529722 75.704213 18.218333 75.714768 17.9175 C 75.725324 17.611389 75.725324 17.273611 75.714768 16.909444 C 75.714768 16.830278 75.714768 16.671944 75.720046 16.439722 C 75.730602 16.202222 75.73588 15.933056 75.741157 15.6375 C 75.746435 15.336667 75.746435 15.041111 75.741157 14.745555 C 75.73588 14.455278 75.720046 14.201944 75.698935 14.001389 C 75.677824 13.795555 75.646157 13.668889 75.598657 13.616111 C 75.487824 13.536944 75.371713 13.484167 75.245046 13.447222 C 75.118379 13.410278 74.991713 13.389167 74.865046 13.378611 C 74.701435 13.368055 74.543102 13.362778 74.379491 13.362778 C 74.226435 13.362778 74.068102 13.362778 73.909768 13.362778 L 72.205046 13.362778 C 72.104768 13.362778 72.05199 13.315278 72.05199 13.215 C 72.05199 13.215 72.046713 13.104167 72.041435 12.877222 C 72.030879 12.655555 72.020324 12.386389 72.009768 12.064444 C 71.999213 11.7425 71.988657 11.436389 71.978102 11.146111 C 71.967546 10.850555 71.962268 10.634166 71.962268 10.491666 L 71.962268 9.7475 C 71.972824 9.647222 72.020324 9.599722 72.110046 9.599722 L 84.47588 9.599722 C 84.47588 9.599722 84.486435 9.599722 84.496991 9.605 C 84.512824 9.610277 84.52338 9.615555 84.52338 9.626111 Z M 85.410047 9.599722 L 91.716991 9.599722 C 91.83838 9.599722 91.891158 9.657777 91.880602 9.779166 C 91.833102 10.502222 91.817269 11.246389 91.843658 12.001111 C 91.870047 12.761111 91.88588 13.510555 91.896436 14.26 C 91.896436 14.682222 91.891158 15.093889 91.880602 15.505555 C 91.870047 15.911944 91.870047 16.323611 91.880602 16.745833 C 91.891158 17.094167 91.906991 17.437222 91.928102 17.780278 C 91.943936 18.123333 91.970325 18.471667 91.996714 18.82 C 92.007269 18.941389 91.954491 18.999445 91.833102 18.999445 L 85.420602 18.999445 C 85.383658 18.999445 85.367824 18.973056 85.37838 18.925556 C 85.399491 18.793611 85.410047 18.556111 85.420602 18.207778 C 85.431158 17.859444 85.436435 17.468889 85.436435 17.036111 C 85.436435 16.603333 85.436435 16.191667 85.431158 15.811667 C 85.42588 15.426389 85.415324 15.136111 85.410047 14.935555 C 85.410047 14.698055 85.404769 14.381389 85.399491 13.990833 C 85.394213 13.605555 85.388935 13.183333 85.383658 12.734722 C 85.37838 12.286111 85.37838 11.848055 85.373102 11.425833 C 85.367824 11.003611 85.362547 10.634166 85.357269 10.312222 C 85.351991 9.995555 85.346713 9.773889 85.346713 9.657777 C 85.357269 9.647222 85.37838 9.626111 85.410047 9.599722 Z M 105.465603 9.684166 C 105.465603 9.684166 105.465603 9.694722 105.465603 9.715833 C 105.465603 9.736944 105.465603 9.7475 105.465603 9.7475 C 105.465603 9.758055 105.460325 9.863611 105.455047 10.058889 C 105.44977 10.259444 105.44977 10.491666 105.444492 10.750278 C 105.439214 11.008889 105.433936 11.22 105.433936 11.388889 C 105.433936 11.478611 105.439214 11.631666 105.444492 11.848055 C 105.44977 12.059166 105.44977 12.259722 105.455047 12.439166 C 105.460325 12.618611 105.465603 12.708333 105.465603 12.708333 C 105.465603 12.766389 105.433936 12.792778 105.370603 12.792778 C 104.863936 12.792778 104.351992 12.792778 103.840047 12.7875 C 103.328103 12.782222 102.816158 12.776944 102.293658 12.766389 C 102.17227 12.766389 101.992825 12.761111 101.750047 12.745278 C 101.507269 12.729444 101.248658 12.718889 100.968936 12.708333 C 100.694492 12.697778 100.451714 12.687222 100.230047 12.681944 C 100.013658 12.676666 99.860603 12.687222 99.781436 12.708333 C 99.644214 12.734722 99.538658 12.808611 99.475325 12.914166 C 99.411992 13.025 99.375047 13.141111 99.359214 13.257222 C 99.343381 13.378611 99.343381 13.457778 99.348658 13.5 C 99.380325 13.726944 99.459492 13.848333 99.596714 13.858889 C 99.733936 13.869444 99.908103 13.885278 100.129769 13.916944 C 100.356714 13.948611 100.652269 13.953889 101.016436 13.943333 C 101.380603 13.922222 101.676158 13.9275 101.903103 13.948611 C 102.203936 13.959167 102.462547 13.953889 102.684214 13.943333 C 102.900603 13.922222 103.185603 13.922222 103.539214 13.932778 C 103.813658 13.932778 104.11977 13.932778 104.446992 13.932778 C 104.779492 13.932778 105.085603 13.922222 105.370603 13.901111 C 105.433936 13.890555 105.465603 13.916944 105.465603 13.980278 C 105.465603 13.980278 105.455047 14.075278 105.444492 14.270555 C 105.428659 14.460555 105.418103 14.671667 105.418103 14.903889 C 105.418103 15.025278 105.423381 15.194167 105.428659 15.421111 C 105.433936 15.642778 105.439214 15.843333 105.44977 16.022778 C 105.460325 16.2075 105.465603 16.297222 105.465603 16.297222 C 105.465603 16.355278 105.433936 16.381667 105.370603 16.381667 C 105.196436 16.381667 105.011714 16.381667 104.826992 16.381667 C 104.64227 16.381667 104.457547 16.381667 104.267547 16.381667 C 104.146158 16.371111 103.935047 16.365833 103.634214 16.355278 C 103.328103 16.344722 102.974492 16.334167 102.568103 16.334167 C 102.166992 16.328889 101.755325 16.334167 101.343658 16.355278 C 100.931992 16.371111 100.551992 16.413333 100.214214 16.476667 C 99.897547 16.54 99.681158 16.619167 99.565047 16.703611 C 99.454214 16.788056 99.380325 16.888333 99.348658 16.993889 C 99.258936 17.257778 99.227269 17.563889 99.243103 17.9175 C 99.264214 18.271111 99.285325 18.598333 99.301158 18.909722 C 99.301158 18.967778 99.274769 18.999445 99.216714 18.999445 L 92.936158 18.999445 C 92.878102 18.999445 92.846436 18.967778 92.846436 18.909722 C 92.846436 18.909722 92.846436 18.835833 92.841158 18.693333 C 92.83588 18.550833 92.830602 18.366111 92.825325 18.133889 C 92.820047 17.901667 92.814769 17.669444 92.809491 17.431944 C 92.804214 17.194444 92.804214 16.978056 92.804214 16.788056 C 92.804214 16.635 92.804214 16.413333 92.809491 16.123056 C 92.814769 15.8275 92.820047 15.500278 92.830602 15.136111 C 92.841158 14.771944 92.846436 14.407778 92.851714 14.048889 C 92.856991 13.684722 92.862269 13.352222 92.862269 13.051389 C 92.862269 12.750555 92.856991 12.523611 92.846436 12.36 C 92.83588 12.133055 92.841158 11.869166 92.851714 11.578889 C 92.867547 11.283333 92.867547 11.024722 92.846436 10.7925 L 92.846436 9.684166 C 92.846436 9.626111 92.878102 9.599722 92.936158 9.599722 L 105.370603 9.599722 C 105.433936 9.599722 105.465603 9.626111 105.465603 9.684166 Z M 106.362825 9.599722 L 112.66977 9.599722 C 112.791159 9.599722 112.849214 9.657777 112.838659 9.779166 C 112.785881 10.502222 112.775326 11.246389 112.801714 12.001111 C 112.828103 12.761111 112.843937 13.510555 112.854492 14.26 C 112.854492 14.682222 112.849214 15.093889 112.833381 15.505555 C 112.828103 15.911944 112.828103 16.323611 112.838659 16.745833 C 112.849214 17.094167 112.865048 17.437222 112.880881 17.780278 C 112.901992 18.123333 112.928381 18.471667 112.95477 18.82 C 112.965326 18.941389 112.912548 18.999445 112.791159 18.999445 L 106.378659 18.999445 C 106.341714 18.999445 106.325881 18.973056 106.336436 18.925556 C 106.35227 18.793611 106.368103 18.556111 106.378659 18.207778 C 106.389214 17.859444 106.394492 17.468889 106.394492 17.036111 C 106.394492 16.603333 106.389214 16.191667 106.383936 15.811667 C 106.383936 15.426389 106.373381 15.136111 106.362825 14.935555 C 106.362825 14.698055 106.362825 14.381389 106.357547 13.990833 C 106.35227 13.605555 106.346992 13.183333 106.341714 12.734722 C 106.336436 12.286111 106.331159 11.848055 106.325881 11.425833 C 106.325881 11.003611 106.320603 10.634166 106.315325 10.312222 C 106.310047 9.995555 106.30477 9.773889 106.30477 9.657777 C 106.315325 9.647222 106.336436 9.626111 106.362825 9.599722 Z M 126.302271 16.460833 C 126.302271 16.608611 126.302271 16.814444 126.302271 17.073056 C 126.302271 17.331667 126.302271 17.595556 126.307548 17.87 C 126.312826 18.144444 126.318104 18.376667 126.323382 18.566667 C 126.328659 18.756667 126.328659 18.851667 126.328659 18.851667 C 126.328659 18.951945 126.286437 18.999445 126.196715 18.999445 L 117.556992 18.999445 C 117.097826 18.999445 116.617548 18.915 116.116159 18.746111 C 115.609492 18.577222 115.160881 18.286944 114.75977 17.880556 C 114.369214 17.468889 114.100048 17.051944 113.95227 16.619167 C 113.799214 16.181111 113.725326 15.727222 113.725326 15.246944 C 113.725326 15.246944 113.725326 15.246944 113.725326 15.241667 C 113.725326 15.236389 113.725326 15.231111 113.725326 15.231111 L 113.725326 13.420833 C 113.725326 13.420833 113.725326 13.420833 113.725326 13.415555 C 113.725326 13.410278 113.725326 13.410278 113.725326 13.410278 C 113.725326 13.051389 113.741159 12.724166 113.772826 12.428611 C 113.804492 12.138333 113.862548 11.853333 113.95227 11.584166 C 114.031437 11.336111 114.152826 11.109166 114.305881 10.913889 C 114.458937 10.713333 114.643659 10.528611 114.849492 10.359722 C 115.208381 10.069444 115.561992 9.879444 115.905048 9.784444 C 116.248103 9.689444 116.622826 9.626111 117.018659 9.599722 L 126.196715 9.599722 C 126.286437 9.599722 126.328659 9.641944 126.328659 9.731666 L 126.328659 10.581389 C 126.328659 10.613055 126.328659 10.713333 126.323382 10.8875 C 126.318104 11.066944 126.318104 11.256944 126.318104 11.4575 C 126.318104 11.663333 126.318104 11.826944 126.318104 11.943055 C 126.318104 12.101389 126.318104 12.259722 126.323382 12.423333 C 126.328659 12.581666 126.328659 12.74 126.328659 12.903611 L 126.328659 13.410278 C 126.328659 13.5 126.286437 13.5475 126.196715 13.558055 C 125.959215 13.558055 125.647826 13.558055 125.262548 13.552778 C 124.87727 13.5475 124.476159 13.536944 124.043382 13.526389 C 123.615882 13.521111 123.204215 13.510555 122.813659 13.5 C 122.417826 13.489444 122.085326 13.478889 121.816159 13.468333 C 121.546993 13.457778 121.388659 13.4525 121.335881 13.4525 C 121.188104 13.4525 121.040326 13.463055 120.897826 13.494722 C 120.750048 13.515833 120.618104 13.568611 120.501992 13.647778 C 120.401715 13.705833 120.31727 13.790278 120.243381 13.895833 C 120.180048 13.996111 120.143104 14.112222 120.143104 14.228333 C 120.143104 14.339167 120.17477 14.434167 120.238104 14.513333 C 120.306715 14.5925 120.375326 14.661111 120.45977 14.708611 C 120.623381 14.808889 120.813381 14.872222 121.024493 14.903889 C 121.230326 14.935555 121.430881 14.956667 121.620881 14.977778 C 121.752826 14.988333 121.985048 14.993611 122.322826 14.993611 C 122.665881 14.993611 123.045881 14.988333 123.478659 14.983055 C 123.906159 14.977778 124.323104 14.977778 124.729493 14.9725 C 125.141159 14.967222 125.478937 14.961944 125.753382 14.956667 C 126.027826 14.951389 126.175604 14.946111 126.196715 14.946111 C 126.254771 14.946111 126.302271 14.977778 126.328659 15.041111 C 126.318104 15.278611 126.312826 15.516111 126.307548 15.748333 C 126.302271 15.980556 126.302271 16.218056 126.302271 16.460833 Z M 139.459771 18.999445 L 132.55116 18.999445 C 132.50366 18.999445 132.482549 18.973056 132.482549 18.925556 C 132.482549 18.735556 132.50366 18.482222 132.545882 18.155 C 132.593382 17.833056 132.640882 17.505833 132.69366 17.173333 C 132.751715 16.846111 132.78866 16.592778 132.809771 16.413333 C 132.820326 16.365833 132.846715 16.344722 132.894215 16.355278 C 132.920604 16.355278 132.994493 16.355278 133.12116 16.360556 C 133.253104 16.365833 133.395604 16.365833 133.553937 16.365833 C 133.712271 16.365833 133.860049 16.365833 133.986715 16.355278 C 134.11866 16.344722 134.197826 16.318333 134.229493 16.281389 C 134.276993 16.228611 134.298104 16.144167 134.287549 16.022778 C 134.276993 15.906667 134.26116 15.785278 134.234771 15.658611 C 134.21366 15.531944 134.192549 15.431667 134.171438 15.3525 C 134.160882 15.273333 134.123938 15.104444 134.065882 14.840555 C 134.013104 14.571389 133.960326 14.291667 133.902271 14.001389 C 133.849493 13.705833 133.817826 13.463055 133.807271 13.273055 C 133.791437 13.056667 133.743937 12.871944 133.675326 12.724166 C 133.606715 12.571111 133.50116 12.497222 133.35866 12.497222 C 133.163382 12.486666 133.020882 12.555278 132.941715 12.708333 C 132.862549 12.856111 132.815049 12.966944 132.793937 13.035555 C 132.735882 13.405 132.677826 13.726944 132.619771 14.001389 C 132.566993 14.275833 132.514215 14.545 132.471993 14.808889 C 132.424493 15.072778 132.376993 15.384167 132.318937 15.743056 C 132.234493 16.270833 132.155326 16.798611 132.070882 17.331667 C 131.98116 17.864722 131.928382 18.397778 131.912549 18.925556 C 131.912549 18.973056 131.88616 18.999445 131.83866 18.999445 L 127.141437 18.999445 C 127.083382 18.999445 127.056993 18.967778 127.067548 18.909722 C 127.088659 18.841111 127.104493 18.756667 127.125604 18.656389 C 127.157271 18.566667 127.215326 18.376667 127.299771 18.081111 C 127.384215 17.785556 127.479215 17.453056 127.584771 17.088889 C 127.685048 16.719444 127.790604 16.360556 127.896159 16.0175 C 128.001715 15.674444 128.086159 15.410555 128.144215 15.220555 C 128.181159 15.056944 128.239215 14.819444 128.318382 14.4975 C 128.392271 14.180833 128.471437 13.821944 128.555882 13.431389 C 128.640326 13.035555 128.724771 12.645 128.809215 12.249166 C 128.89366 11.858611 128.972826 11.505 129.041437 11.188333 C 129.110048 10.876944 129.168104 10.639444 129.220882 10.475833 C 129.252548 10.338611 129.284215 10.201389 129.315882 10.069444 C 129.352826 9.932222 129.379215 9.795 129.400326 9.657777 C 129.410882 9.615555 129.431993 9.599722 129.474215 9.599722 L 137.190327 9.599722 C 137.227271 9.599722 137.25366 9.615555 137.264215 9.657777 C 137.322271 9.863611 137.375049 10.111666 137.417271 10.391389 C 137.464771 10.665833 137.517549 10.908611 137.575604 11.119722 C 137.696993 11.520833 137.797271 11.879722 137.876438 12.196389 C 137.955604 12.513055 138.045327 12.871944 138.145604 13.273055 C 138.245882 13.674167 138.335604 14.07 138.425327 14.471111 C 138.509771 14.866944 138.594215 15.268055 138.683938 15.669167 C 138.705049 15.743056 138.741993 15.896111 138.794771 16.123056 C 138.852827 16.35 138.91616 16.603333 138.990049 16.888333 C 139.063938 17.168056 139.137827 17.453056 139.216993 17.743333 C 139.290882 18.033611 139.354216 18.281667 139.406993 18.492778 C 139.465049 18.703889 139.507271 18.841111 139.53366 18.909722 C 139.554771 18.967778 139.528382 18.999445 139.459771 18.999445 Z M 139.459771 18.999445 " stroke="#ffde59" stroke-width="0.822734" stroke-opacity="1" stroke-miterlimit="4"/></svg>